<svg xmlns="http://www.w3.org/2000/svg" xmlns:xlink="http://www.w3.org/1999/xlink" width="500" zoomAndPan="magnify" viewBox="0 0 375 374.999991" height="500" preserveAspectRatio="xMidYMid meet" version="1.0"><defs><clipPath id="1771f7e0a3"><path d="M 187.5 0 C 83.945312 0 0 83.945312 0 187.5 C 0 291.054688 83.945312 375 187.5 375 C 291.054688 375 375 291.054688 375 187.5 C 375 83.945312 291.054688 0 187.5 0 Z M 187.5 0 " clip-rule="nonzero"/></clipPath><clipPath id="c463331554"><path d="M 191 213 L 357.664062 213 L 357.664062 266.34375 L 191 266.34375 Z M 191 213 " clip-rule="nonzero"/></clipPath><clipPath id="768aa37345"><path d="M 17.164062 213 L 184 213 L 184 266.34375 L 17.164062 266.34375 Z M 17.164062 213 " clip-rule="nonzero"/></clipPath><clipPath id="6b2dabd599"><path d="M 99 75.84375 L 273 75.84375 L 273 185 L 99 185 Z M 99 75.84375 " clip-rule="nonzero"/></clipPath></defs><g clip-path="url(#1771f7e0a3)"><rect x="-37.5" width="450" fill="#9bdaff" y="-37.499999" height="449.999989" fill-opacity="1"/></g><g clip-path="url(#c463331554)"><path fill="#0071bc" d="M 204.601562 247.527344 C 262.273438 219.125 314.601562 214.167969 340.5625 213.726562 C 349.96875 213.5625 357.628906 221.253906 357.445312 230.667969 C 357.269531 239.484375 350.253906 246.640625 341.449219 246.953125 C 265.765625 249.632812 191.257812 266.335938 191.257812 266.335938 C 190.972656 257.746094 191.257812 255.691406 191.257812 255.691406 C 192.558594 252.015625 204.601562 247.527344 204.601562 247.527344 " fill-opacity="1" fill-rule="nonzero"/></g><path fill="#0071bc" d="M 198.851562 229.109375 C 233.351562 200.3125 268.074219 188.320312 285.636719 183.738281 C 291.996094 182.078125 298.464844 186.039062 299.886719 192.464844 C 301.21875 198.480469 297.628906 204.496094 291.703125 206.160156 C 240.738281 220.457031 192.882812 244.085938 192.882812 244.085938 C 191.277344 238.296875 191.128906 236.855469 191.128906 236.855469 C 191.410156 234.144531 198.851562 229.109375 198.851562 229.109375 " fill-opacity="1" fill-rule="nonzero"/><g clip-path="url(#768aa37345)"><path fill="#47ae6a" d="M 170.226562 247.527344 C 112.550781 219.125 60.226562 214.167969 34.261719 213.726562 C 24.859375 213.5625 17.199219 221.253906 17.382812 230.667969 C 17.554688 239.484375 24.574219 246.640625 33.375 246.953125 C 109.0625 249.632812 183.574219 266.335938 183.574219 266.335938 C 183.855469 257.746094 183.574219 255.691406 183.574219 255.691406 C 182.269531 252.015625 170.226562 247.527344 170.226562 247.527344 " fill-opacity="1" fill-rule="nonzero"/></g><path fill="#47ae6a" d="M 175.976562 229.109375 C 141.476562 200.3125 106.753906 188.320312 89.191406 183.738281 C 82.832031 182.078125 76.363281 186.039062 74.941406 192.464844 C 73.609375 198.480469 77.199219 204.496094 83.125 206.160156 C 134.089844 220.457031 181.949219 244.085938 181.949219 244.085938 C 183.550781 238.296875 183.699219 236.855469 183.699219 236.855469 C 183.417969 234.144531 175.976562 229.109375 175.976562 229.109375 " fill-opacity="1" fill-rule="nonzero"/><g clip-path="url(#6b2dabd599)"><path fill="#3084b5" d="M 269.964844 133.5625 L 228.117188 155.054688 L 228.210938 179.167969 L 227.9375 179.207031 L 227.933594 179.757812 L 224.09375 179.730469 L 187.574219 184.734375 L 146.863281 179.757812 L 146.859375 179.167969 L 146.585938 179.167969 L 146.6875 154.5 L 105.074219 132.363281 C 104.980469 132.316406 104.894531 132.261719 104.808594 132.210938 L 104.71875 144.386719 C 106.140625 144.738281 107.15625 145.652344 107.144531 146.714844 L 106.96875 171.410156 C 106.957031 172.765625 105.289062 173.855469 103.246094 173.839844 C 101.199219 173.824219 99.546875 172.710938 99.558594 171.355469 L 99.734375 146.664062 C 99.746094 145.601562 100.769531 144.699219 102.199219 144.371094 L 102.3125 128.507812 C 101.984375 126.453125 102.84375 124.226562 104.90625 123.035156 L 125.625 111.046875 L 145.261719 99.691406 L 158.589844 91.976562 L 178.230469 80.613281 L 185.230469 76.566406 C 186.066406 76.082031 187 75.84375 187.933594 75.851562 C 188.867188 75.855469 189.796875 76.109375 190.625 76.605469 L 191.558594 77.164062 L 211.199219 88.90625 L 224.523438 96.878906 L 244.160156 108.625 L 270.265625 124.238281 C 273.855469 126.382812 273.691406 131.652344 269.964844 133.5625 " fill-opacity="1" fill-rule="nonzero"/></g><path fill="#45b0e5" d="M 187.574219 184.734375 L 187.996094 127.046875 L 228.191406 141.710938 L 227.914062 179.804688 L 187.574219 184.734375 " fill-opacity="1" fill-rule="nonzero"/></svg>