<svg xmlns="http://www.w3.org/2000/svg" xmlns:xlink="http://www.w3.org/1999/xlink" width="200" zoomAndPan="magnify" viewBox="0 0 150 149.999998" height="200" preserveAspectRatio="xMidYMid meet" version="1.0"><defs><clipPath id="43fcdd811d"><path d="M 75 0 C 33.578125 0 0 33.578125 0 75 C 0 116.421875 33.578125 150 75 150 C 116.421875 150 150 116.421875 150 75 C 150 33.578125 116.421875 0 75 0 Z M 75 0 " clip-rule="nonzero"/></clipPath><clipPath id="4c231b1281"><path d="M 38.34375 21.652344 L 111.019531 21.652344 L 111.019531 123.199219 L 38.34375 123.199219 Z M 38.34375 21.652344 " clip-rule="nonzero"/></clipPath><clipPath id="d7d0d0ab76"><path d="M 62.582031 23.761719 C 66.292969 22.488281 70.542969 21.652344 74.699219 21.652344 C 78.859375 21.652344 82.859375 22.367188 86.546875 23.640625 C 86.625 23.679688 86.699219 23.679688 86.78125 23.71875 C 100.625 28.808594 110.824219 42.25 111.019531 58.21875 L 111.019531 123.175781 L 38.34375 123.175781 L 38.34375 58.265625 C 38.539062 42.171875 48.578125 28.730469 62.582031 23.761719 Z M 62.582031 23.761719 " clip-rule="nonzero"/></clipPath><clipPath id="268ee7ea28"><path d="M 94.304688 63.332031 L 104.847656 63.332031 L 104.847656 75.199219 L 94.304688 75.199219 Z M 94.304688 63.332031 " clip-rule="nonzero"/></clipPath><clipPath id="6921812ebb"><path d="M 83.765625 74.007812 L 104.847656 74.007812 L 104.847656 85.8125 L 83.765625 85.8125 Z M 83.765625 74.007812 " clip-rule="nonzero"/></clipPath><clipPath id="c1b7ac5df0"><path d="M 71.710938 84.625 L 104.855469 84.625 L 104.855469 96.492188 L 71.710938 96.492188 Z M 71.710938 84.625 " clip-rule="nonzero"/></clipPath><clipPath id="0a750ae521"><path d="M 60.40625 95.296875 L 104.855469 95.296875 L 104.855469 107.167969 L 60.40625 107.167969 Z M 60.40625 95.296875 " clip-rule="nonzero"/></clipPath><clipPath id="bb3689859f"><path d="M 49.882812 105.503906 L 104.847656 105.503906 L 104.847656 117.371094 L 49.882812 117.371094 Z M 49.882812 105.503906 " clip-rule="nonzero"/></clipPath></defs><g clip-path="url(#43fcdd811d)"><rect x="-15" width="180" fill="#f6f3f2" y="-15" height="179.999997" fill-opacity="1"/></g><g clip-path="url(#4c231b1281)"><g clip-path="url(#d7d0d0ab76)"><path stroke-linecap="butt" transform="matrix(0.486123, 0, 0, 0.488214, 38.343218, 21.651889)" fill="none" stroke-linejoin="miter" d="M 49.861505 4.321522 C 57.49525 1.713165 66.237898 0.000931011 74.787692 0.000931011 C 83.345523 0.000931011 91.573896 1.465131 99.159429 4.073488 C 99.320139 4.153499 99.472814 4.153499 99.64156 4.23351 C 128.119448 14.658936 149.100194 42.190701 149.50197 74.899174 L 149.50197 207.949369 L 0.00109459 207.949369 L 0.00109459 74.995187 C 0.402871 42.030679 21.054161 14.498914 49.861505 4.321522 Z M 49.861505 4.321522 " stroke="#86635b" stroke-width="4" stroke-opacity="1" stroke-miterlimit="4"/></g></g><g clip-path="url(#268ee7ea28)"><path fill="#86635b" d="M 94.304688 63.332031 L 104.847656 63.332031 L 104.847656 75.199219 L 94.304688 75.199219 Z M 94.304688 63.332031 " fill-opacity="1" fill-rule="nonzero"/></g><g clip-path="url(#6921812ebb)"><path fill="#86635b" d="M 83.773438 74.007812 L 104.847656 74.007812 L 104.847656 85.8125 L 83.773438 85.8125 Z M 83.773438 74.007812 " fill-opacity="1" fill-rule="nonzero"/></g><g clip-path="url(#c1b7ac5df0)"><path fill="#86635b" d="M 71.707031 84.625 L 104.855469 84.625 L 104.855469 96.492188 L 71.707031 96.492188 Z M 71.707031 84.625 " fill-opacity="1" fill-rule="nonzero"/></g><g clip-path="url(#0a750ae521)"><path fill="#86635b" d="M 60.394531 95.296875 L 104.855469 95.296875 L 104.855469 107.167969 L 60.394531 107.167969 Z M 60.394531 95.296875 " fill-opacity="1" fill-rule="nonzero"/></g><g clip-path="url(#bb3689859f)"><path fill="#86635b" d="M 49.867188 105.503906 L 104.847656 105.503906 L 104.847656 117.371094 L 49.867188 117.371094 Z M 49.867188 105.503906 " fill-opacity="1" fill-rule="nonzero"/></g></svg>