<svg xmlns="http://www.w3.org/2000/svg" xmlns:xlink="http://www.w3.org/1999/xlink" width="200" zoomAndPan="magnify" viewBox="0 0 150 149.999998" height="200" preserveAspectRatio="xMidYMid meet" version="1.0"><defs><clipPath id="6550fca7bd"><path d="M 75 0 C 33.578125 0 0 33.578125 0 75 C 0 116.421875 33.578125 150 75 150 C 116.421875 150 150 116.421875 150 75 C 150 33.578125 116.421875 0 75 0 Z M 75 0 " clip-rule="nonzero"/></clipPath><clipPath id="bb57253a16"><path d="M 29.023438 30.601562 L 113.023438 30.601562 L 113.023438 119.101562 L 29.023438 119.101562 Z M 29.023438 30.601562 " clip-rule="nonzero"/></clipPath></defs><g clip-path="url(#6550fca7bd)"><rect x="-15" width="180" fill="#d937e0" y="-15" height="179.999997" fill-opacity="1"/></g><g clip-path="url(#bb57253a16)"><path fill="#000000" d="M 112.9375 94.5 L 112.9375 33.675781 C 112.9375 32.796875 112.542969 31.964844 111.871094 31.398438 C 111.199219 30.832031 110.304688 30.589844 109.441406 30.742188 L 54.035156 40.480469 C 52.609375 40.730469 51.570312 41.964844 51.570312 43.410156 L 51.570312 94.433594 C 49.238281 92.867188 46.394531 91.945312 43.324219 91.945312 C 35.425781 91.945312 29.023438 98.015625 29.023438 105.507812 C 29.023438 113.003906 35.425781 119.074219 43.324219 119.074219 C 51.222656 119.074219 57.617188 113 57.617188 105.507812 C 57.617188 105.003906 57.585938 104.503906 57.527344 104.011719 L 57.527344 62.546875 L 106.976562 53.285156 L 106.976562 84.921875 C 104.644531 83.351562 101.804688 82.429688 98.726562 82.429688 C 90.832031 82.429688 84.433594 88.503906 84.433594 95.996094 C 84.433594 103.484375 90.832031 109.5625 98.726562 109.5625 C 106.621094 109.5625 113.023438 103.488281 113.023438 95.996094 C 113.023438 95.488281 112.992188 94.992188 112.9375 94.5 Z M 106.976562 47.238281 L 57.527344 56.5 L 57.527344 45.90625 L 106.976562 37.21875 Z M 106.976562 47.238281 " fill-opacity="1" fill-rule="nonzero"/></g></svg>