<svg xmlns="http://www.w3.org/2000/svg" xmlns:xlink="http://www.w3.org/1999/xlink" width="500" zoomAndPan="magnify" viewBox="0 0 375 374.999991" height="500" preserveAspectRatio="xMidYMid meet" version="1.0"><defs><clipPath id="f039edcb52"><path d="M 0.0664062 0 L 375 0 L 375 374.933594 L 0.0664062 374.933594 Z M 0.0664062 0 " clip-rule="nonzero"/></clipPath><clipPath id="4d83c28966"><path d="M 187.535156 0 C 84 0 0.0664062 83.929688 0.0664062 187.464844 C 0.0664062 291 84 374.933594 187.535156 374.933594 C 291.070312 374.933594 375 291 375 187.464844 C 375 83.929688 291.070312 0 187.535156 0 Z M 187.535156 0 " clip-rule="nonzero"/></clipPath><clipPath id="9b54b802f0"><path d="M 77.546875 96.316406 L 297.394531 96.316406 L 297.394531 259.320312 L 77.546875 259.320312 Z M 77.546875 96.316406 " clip-rule="nonzero"/></clipPath><clipPath id="fb7b873bda"><path d="M 84.082031 103.828125 L 84.082031 252.480469 C 84.082031 252.976562 84.488281 253.378906 84.980469 253.378906 L 128.769531 253.199219 C 129.261719 253.199219 129.667969 253.605469 129.667969 254.097656 L 129.695312 258.144531 C 129.695312 258.640625 129.289062 259.042969 128.796875 259.042969 L 78.753906 259.097656 C 78.257812 259.097656 77.855469 258.691406 77.855469 258.199219 L 77.855469 97.519531 C 77.855469 97.027344 78.257812 96.621094 78.753906 96.621094 L 295.964844 97.109375 C 296.457031 97.109375 296.863281 97.511719 296.863281 98.003906 L 297.140625 257.785156 C 297.140625 258.28125 296.734375 258.683594 296.242188 258.683594 L 177.304688 259.195312 C 176.8125 259.195312 176.410156 258.792969 176.410156 258.296875 L 176.335938 254.167969 C 176.320312 253.675781 176.714844 253.261719 177.207031 253.246094 L 177.261719 253.246094 L 290.410156 253.453125 C 290.902344 253.453125 291.304688 253.046875 291.304688 252.554688 L 291.207031 103.40625 C 291.207031 102.914062 290.804688 102.511719 290.308594 102.511719 L 84.988281 102.921875 C 84.496094 102.921875 84.09375 103.328125 84.09375 103.820312 " clip-rule="nonzero"/></clipPath><clipPath id="633a16ba67"><path d="M 91 109.691406 L 284.855469 109.691406 L 284.855469 246.78125 L 91 246.78125 Z M 91 109.691406 " clip-rule="nonzero"/></clipPath><clipPath id="3cfdcb613f"><path d="M 257.203125 115.777344 L 119.183594 116.007812 C 118.207031 116.007812 117.605469 116.476562 117.363281 117.417969 C 114.832031 127.164062 108.648438 133.195312 98.800781 135.519531 L 97.726562 136.246094 L 97.726562 218.316406 C 97.714844 219.527344 98.59375 220.566406 99.796875 220.773438 C 109.949219 222.46875 114.363281 230 117.695312 238.949219 C 118 239.753906 118.582031 240.140625 119.433594 240.132812 L 127.027344 240.007812 C 128.222656 239.972656 129.253906 240.859375 129.414062 242.054688 L 129.542969 243.03125 C 129.847656 245.222656 128.894531 246.335938 126.667969 246.363281 L 113.71875 246.488281 C 112.605469 246.503906 112.023438 245.957031 111.949219 244.84375 C 111.144531 233.085938 104.957031 226.839844 93.390625 226.105469 C 92.179688 226.03125 91.566406 225.394531 91.566406 224.183594 L 91.566406 131.519531 C 91.566406 130.574219 92.015625 130 92.921875 129.792969 C 95.257812 129.308594 98.128906 129.535156 100.101562 128.769531 C 106.886719 126.070312 110.953125 120.164062 112.308594 111.054688 C 112.445312 110.21875 112.945312 109.796875 113.800781 109.796875 L 262.226562 110.417969 C 262.972656 110.417969 263.582031 110.984375 263.636719 111.726562 C 264.714844 123.691406 271.292969 129.730469 283.382812 129.832031 L 284.125 130.164062 L 284.125 224.6875 C 284.125 225.519531 283.453125 226.203125 282.609375 226.203125 C 272.789062 226.285156 263.332031 232.433594 264.328125 243.257812 L 264.34375 244.351562 C 263.988281 245.824219 263.367188 246.308594 262.378906 246.308594 L 179.003906 246.378906 C 177.621094 246.378906 176.507812 245.265625 176.488281 243.894531 L 176.488281 242.609375 C 176.453125 240.90625 177.289062 240.042969 179.003906 240.042969 L 256.539062 240.070312 C 257.445312 240.070312 258 239.640625 258.207031 238.757812 C 260.683594 229.066406 266.742188 222.902344 276.378906 220.253906 C 277.421875 219.964844 278.148438 219.015625 278.148438 217.917969 L 278.066406 137.800781 C 278.066406 136.570312 277.234375 135.492188 276.039062 135.214844 C 266.273438 132.871094 260.441406 126.761719 258.53125 116.878906 L 257.929688 115.777344 " clip-rule="nonzero"/></clipPath><clipPath id="c13536c3bf"><path d="M 182.035156 145 L 255.597656 145 L 255.597656 151 L 182.035156 151 Z M 182.035156 145 " clip-rule="nonzero"/></clipPath><clipPath id="d864ede511"><path d="M 184.511719 145.230469 L 252.921875 145.230469 C 254.121094 145.230469 255.101562 146.210938 255.101562 147.414062 L 255.101562 148.640625 C 255.101562 149.84375 254.121094 150.824219 252.921875 150.824219 L 184.511719 150.824219 C 183.308594 150.824219 182.332031 149.84375 182.332031 148.640625 L 182.332031 147.414062 C 182.332031 146.210938 183.308594 145.230469 184.511719 145.230469 " clip-rule="nonzero"/></clipPath><clipPath id="f82caeae0e"><path d="M 182.035156 160.679688 L 255 160.679688 L 255 167.367188 L 182.035156 167.367188 Z M 182.035156 160.679688 " clip-rule="nonzero"/></clipPath><clipPath id="efa2ddb5bb"><path d="M 184.636719 160.9375 L 252.632812 160.820312 C 253.925781 160.820312 254.964844 161.863281 254.964844 163.15625 L 254.964844 164.589844 C 254.964844 165.882812 253.925781 166.925781 252.640625 166.925781 L 184.648438 167.039062 C 183.355469 167.039062 182.3125 166 182.3125 164.707031 L 182.3125 163.269531 C 182.3125 161.980469 183.355469 160.9375 184.636719 160.9375 " clip-rule="nonzero"/></clipPath><clipPath id="27f4e89285"><path d="M 119 174.054688 L 186 174.054688 L 186 301.953125 L 119 301.953125 Z M 119 174.054688 " clip-rule="nonzero"/></clipPath><clipPath id="de8039f110"><path d="M 150.875 291.964844 L 136.308594 301.253906 C 135.832031 301.566406 135.195312 301.433594 134.890625 300.964844 L 134.71875 300.589844 L 134.828125 238.847656 C 134.828125 237.871094 134.441406 237.089844 133.679688 236.488281 C 109.238281 217.101562 116.929688 178.078125 148.855469 174.820312 C 183.140625 171.3125 199.035156 216.207031 171.292969 235.871094 C 170.574219 236.382812 170.144531 237.214844 170.136719 238.09375 L 170.214844 300.292969 C 170.214844 301.65625 169.632812 301.988281 168.476562 301.269531 L 153.371094 291.9375 C 152.535156 291.425781 151.699219 291.433594 150.882812 291.964844 " clip-rule="nonzero"/></clipPath><clipPath id="c1c9d8f229"><path d="M 218 177 L 255.597656 177 L 255.597656 183.25 L 218 183.25 Z M 218 177 " clip-rule="nonzero"/></clipPath><clipPath id="b4472b366b"><path d="M 220.441406 177.199219 L 253.207031 177.253906 C 254.285156 177.253906 255.15625 178.132812 255.15625 179.203125 L 255.15625 181.203125 C 255.15625 182.28125 254.285156 183.152344 253.207031 183.152344 L 220.441406 183.097656 C 219.363281 183.097656 218.492188 182.21875 218.492188 181.148438 L 218.492188 179.148438 C 218.492188 178.070312 219.371094 177.199219 220.441406 177.199219 " clip-rule="nonzero"/></clipPath><clipPath id="6e3f0d81a8"><path d="M 125 181 L 179.53125 181 L 179.53125 235.914062 L 125 235.914062 Z M 125 181 " clip-rule="nonzero"/></clipPath><clipPath id="1505d77d15"><path d="M 179.335938 208.335938 C 179.335938 223.304688 167.199219 235.4375 152.230469 235.4375 C 137.261719 235.4375 125.125 223.304688 125.125 208.335938 C 125.125 193.363281 137.261719 181.230469 152.230469 181.230469 C 167.199219 181.230469 179.335938 193.363281 179.335938 208.335938 " clip-rule="nonzero"/></clipPath><clipPath id="8b8a30de3c"><path d="M 129.375 185 L 175 185 L 175 231.734375 L 129.375 231.734375 Z M 129.375 185 " clip-rule="nonzero"/></clipPath><clipPath id="08453d574c"><path d="M 130.027344 207.023438 C 133.285156 201.738281 135.507812 200.6875 135.175781 193.949219 C 135.125 192.746094 136.058594 191.722656 137.277344 191.667969 L 137.296875 191.667969 C 142.726562 191.515625 147.429688 189.605469 151.429688 185.925781 L 152.507812 185.519531 C 156.789062 189.128906 161.214844 191.101562 166.203125 191.820312 C 167.910156 192.054688 169.210938 193.480469 169.28125 195.203125 C 169.472656 199.71875 171.121094 203.585938 174.226562 206.816406 C 175.070312 207.6875 175.0625 209.070312 174.199219 209.921875 C 170.609375 213.421875 168.984375 217.695312 169.328125 222.738281 C 169.417969 224.050781 168.421875 225.1875 167.109375 225.277344 L 166.878906 225.289062 C 161.601562 224.867188 157.371094 226.617188 154.070312 230.53125 C 153.226562 231.535156 151.71875 231.667969 150.714844 230.824219 L 150.480469 230.609375 C 145.972656 224.921875 143.074219 226.464844 136.640625 225.101562 C 135.832031 224.9375 135.25 224.230469 135.257812 223.402344 C 135.339844 218.019531 133.660156 213.324219 130.207031 209.332031 C 129.585938 208.613281 129.53125 207.839844 130.027344 207.023438 " clip-rule="nonzero"/></clipPath><clipPath id="d4c93c653b"><path d="M 139 195 L 166 195 L 166 221.703125 L 139 221.703125 Z M 139 195 " clip-rule="nonzero"/></clipPath><clipPath id="6a741746c5"><path d="M 152.285156 195.257812 C 159.507812 195.257812 165.359375 201.109375 165.359375 208.335938 C 165.359375 215.558594 159.507812 221.410156 152.285156 221.410156 C 145.058594 221.410156 139.207031 215.558594 139.207031 208.335938 C 139.207031 201.109375 145.058594 195.257812 152.285156 195.257812 " clip-rule="nonzero"/></clipPath><clipPath id="52b6e9d9b5"><path d="M 140.242188 240 L 164.484375 240 L 164.484375 291 L 140.242188 291 Z M 140.242188 240 " clip-rule="nonzero"/></clipPath><clipPath id="825b97866f"><path d="M 150.820312 284.628906 L 142.132812 290.222656 C 141.34375 290.714844 140.957031 290.5 140.957031 289.585938 L 140.929688 241.128906 C 140.929688 240.277344 141.351562 239.972656 142.1875 240.203125 C 148.917969 242.207031 155.675781 242.1875 162.445312 240.152344 C 163.484375 239.84375 164.003906 240.230469 164.003906 241.308594 L 163.976562 289.359375 C 163.96875 290.007812 163.429688 290.527344 162.785156 290.527344 L 162.34375 290.457031 L 153.566406 284.667969 C 152.742188 284.117188 151.671875 284.109375 150.820312 284.640625 " clip-rule="nonzero"/></clipPath></defs><g clip-path="url(#f039edcb52)"><g clip-path="url(#4d83c28966)"><path fill="#225a64" d="M 0.0664062 0 L 375 0 L 375 374.933594 L 0.0664062 374.933594 Z M 0.0664062 0 " fill-opacity="1" fill-rule="nonzero"/></g></g><g clip-path="url(#9b54b802f0)"><g clip-path="url(#fb7b873bda)"><path fill="#fba628" d="M 73.367188 92.136719 L 301.574219 92.136719 L 301.574219 306.132812 L 73.367188 306.132812 Z M 73.367188 92.136719 " fill-opacity="1" fill-rule="nonzero"/></g></g><g clip-path="url(#633a16ba67)"><g clip-path="url(#3cfdcb613f)"><path fill="#fba628" d="M 73.367188 92.136719 L 301.574219 92.136719 L 301.574219 306.132812 L 73.367188 306.132812 Z M 73.367188 92.136719 " fill-opacity="1" fill-rule="nonzero"/></g></g><g clip-path="url(#c13536c3bf)"><g clip-path="url(#d864ede511)"><path fill="#fba628" d="M 73.367188 92.136719 L 301.574219 92.136719 L 301.574219 306.132812 L 73.367188 306.132812 Z M 73.367188 92.136719 " fill-opacity="1" fill-rule="nonzero"/></g></g><g clip-path="url(#f82caeae0e)"><g clip-path="url(#efa2ddb5bb)"><path fill="#fba628" d="M 73.367188 92.136719 L 301.574219 92.136719 L 301.574219 306.132812 L 73.367188 306.132812 Z M 73.367188 92.136719 " fill-opacity="1" fill-rule="nonzero"/></g></g><g clip-path="url(#27f4e89285)"><g clip-path="url(#de8039f110)"><path fill="#fba628" d="M 73.367188 92.136719 L 301.574219 92.136719 L 301.574219 306.132812 L 73.367188 306.132812 Z M 73.367188 92.136719 " fill-opacity="1" fill-rule="nonzero"/></g></g><g clip-path="url(#c1c9d8f229)"><g clip-path="url(#b4472b366b)"><path fill="#fba628" d="M 73.367188 92.136719 L 301.574219 92.136719 L 301.574219 306.132812 L 73.367188 306.132812 Z M 73.367188 92.136719 " fill-opacity="1" fill-rule="nonzero"/></g></g><g clip-path="url(#6e3f0d81a8)"><g clip-path="url(#1505d77d15)"><path fill="#ffffff" d="M 73.367188 92.136719 L 301.574219 92.136719 L 301.574219 306.132812 L 73.367188 306.132812 Z M 73.367188 92.136719 " fill-opacity="1" fill-rule="nonzero"/></g></g><g clip-path="url(#8b8a30de3c)"><g clip-path="url(#08453d574c)"><path fill="#225a64" d="M 73.367188 92.136719 L 301.574219 92.136719 L 301.574219 306.132812 L 73.367188 306.132812 Z M 73.367188 92.136719 " fill-opacity="1" fill-rule="nonzero"/></g></g><g clip-path="url(#d4c93c653b)"><g clip-path="url(#6a741746c5)"><path fill="#ffffff" d="M 73.367188 92.136719 L 301.574219 92.136719 L 301.574219 306.132812 L 73.367188 306.132812 Z M 73.367188 92.136719 " fill-opacity="1" fill-rule="nonzero"/></g></g><g clip-path="url(#52b6e9d9b5)"><g clip-path="url(#825b97866f)"><path fill="#ffffff" d="M 73.367188 92.136719 L 301.574219 92.136719 L 301.574219 306.132812 L 73.367188 306.132812 Z M 73.367188 92.136719 " fill-opacity="1" fill-rule="nonzero"/></g></g></svg>