<svg xmlns="http://www.w3.org/2000/svg" xmlns:xlink="http://www.w3.org/1999/xlink" width="200" zoomAndPan="magnify" viewBox="0 0 150 149.999998" height="200" preserveAspectRatio="xMidYMid meet" version="1.0"><defs><clipPath id="3470d93451"><path d="M 75 0 C 33.578125 0 0 33.578125 0 75 C 0 116.421875 33.578125 150 75 150 C 116.421875 150 150 116.421875 150 75 C 150 33.578125 116.421875 0 75 0 Z M 75 0 " clip-rule="nonzero"/></clipPath><clipPath id="1508ba8199"><path d="M 28.542969 31.265625 L 121.53125 31.265625 L 121.53125 114.777344 L 28.542969 114.777344 Z M 28.542969 31.265625 " clip-rule="nonzero"/></clipPath><clipPath id="67be1421b0"><path d="M 108 89 L 122.289062 89 L 122.289062 104 L 108 104 Z M 108 89 " clip-rule="nonzero"/></clipPath><clipPath id="59bade4bc7"><path d="M 43.410156 25.613281 L 62.5625 25.613281 L 62.5625 44.621094 L 43.410156 44.621094 Z M 43.410156 25.613281 " clip-rule="nonzero"/></clipPath></defs><g clip-path="url(#3470d93451)"><rect x="-15" width="180" fill="#4f39f6" y="-15" height="179.999997" fill-opacity="1"/></g><g clip-path="url(#1508ba8199)"><path fill="#ffffff" d="M 76.242188 84.257812 L 76.242188 74.320312 C 78.980469 74.320312 81.464844 75.433594 83.265625 77.230469 C 85.0625 79.023438 86.175781 81.511719 86.175781 84.257812 Z M 86.175781 96.582031 L 76.242188 96.582031 L 76.242188 86.644531 L 86.175781 86.644531 Z M 73.851562 84.257812 L 63.914062 84.257812 C 63.914062 81.511719 65.027344 79.023438 66.824219 77.230469 C 68.621094 75.433594 71.105469 74.320312 73.851562 74.320312 Z M 73.851562 96.582031 L 63.914062 96.582031 L 63.914062 86.644531 L 73.851562 86.644531 Z M 120.746094 76.082031 L 76.777344 32.105469 C 75.816406 31.152344 74.265625 31.152344 73.316406 32.109375 L 59.074219 46.347656 C 59.292969 46.644531 59.53125 46.921875 59.785156 47.175781 C 61.664062 49.054688 64.558594 49.96875 68.632812 49.96875 L 68.632812 50.109375 C 60.582031 50.109375 56.992188 53.699219 56.992188 61.75 L 56.847656 61.75 C 56.847656 57.675781 55.9375 54.785156 54.058594 52.902344 C 53.804688 52.648438 53.527344 52.410156 53.230469 52.191406 L 29.339844 76.082031 C 27.804688 77.625 28.890625 80.257812 31.070312 80.257812 L 40.960938 80.257812 L 48.878906 114.824219 L 101.207031 114.824219 L 109.121094 80.257812 L 119.023438 80.257812 C 121.203125 80.257812 122.289062 77.625 120.746094 76.082031 " fill-opacity="1" fill-rule="nonzero"/></g><g clip-path="url(#67be1421b0)"><path fill="#ffffff" d="M 116.976562 94.875 C 115.855469 93.75 115.308594 92.023438 115.308594 89.589844 L 115.222656 89.589844 C 115.222656 92.023438 114.679688 93.75 113.554688 94.875 C 112.433594 95.996094 110.707031 96.539062 108.269531 96.539062 L 108.269531 96.625 C 110.707031 96.625 112.433594 97.171875 113.554688 98.292969 C 114.679688 99.414062 115.222656 101.144531 115.222656 103.578125 L 115.308594 103.578125 C 115.308594 98.769531 117.453125 96.625 122.261719 96.625 L 122.261719 96.539062 C 119.828125 96.539062 118.097656 95.996094 116.976562 94.875 " fill-opacity="1" fill-rule="nonzero"/></g><path fill="#ffffff" d="M 37.945312 47.363281 C 36.746094 46.160156 36.160156 44.308594 36.160156 41.703125 L 36.070312 41.703125 C 36.070312 44.308594 35.484375 46.160156 34.28125 47.363281 C 33.082031 48.566406 31.226562 49.152344 28.621094 49.152344 L 28.621094 49.242188 C 31.226562 49.242188 33.082031 49.828125 34.28125 51.027344 C 35.484375 52.230469 36.070312 54.082031 36.070312 56.691406 L 36.160156 56.691406 C 36.160156 51.539062 38.457031 49.242188 43.609375 49.242188 L 43.609375 49.152344 C 41 49.152344 39.148438 48.566406 37.945312 47.363281 " fill-opacity="1" fill-rule="nonzero"/><g clip-path="url(#59bade4bc7)"><path fill="#ffffff" d="M 55.394531 32.726562 C 53.875 31.207031 53.136719 28.867188 53.136719 25.574219 L 53.023438 25.574219 C 53.023438 28.867188 52.285156 31.207031 50.765625 32.726562 C 49.246094 34.246094 46.90625 34.984375 43.613281 34.984375 L 43.613281 35.097656 C 46.90625 35.097656 49.246094 35.835938 50.765625 37.355469 C 52.285156 38.875 53.023438 41.214844 53.023438 44.507812 L 53.136719 44.507812 C 53.136719 38 56.039062 35.097656 62.546875 35.097656 L 62.546875 34.984375 C 59.253906 34.984375 56.914062 34.246094 55.394531 32.726562 " fill-opacity="1" fill-rule="nonzero"/></g><path fill="#ffffff" d="M 56.382812 93.144531 C 55.625 92.390625 55.257812 91.226562 55.257812 89.589844 L 55.203125 89.589844 C 55.203125 91.226562 54.835938 92.390625 54.082031 93.144531 C 53.324219 93.902344 52.160156 94.269531 50.523438 94.269531 L 50.523438 94.324219 C 52.160156 94.324219 53.324219 94.691406 54.082031 95.445312 C 54.835938 96.203125 55.203125 97.367188 55.203125 99.003906 L 55.257812 99.003906 C 55.257812 95.769531 56.703125 94.324219 59.9375 94.324219 L 59.9375 94.269531 C 58.300781 94.269531 57.136719 93.902344 56.382812 93.144531 " fill-opacity="1" fill-rule="nonzero"/><path fill="#ffffff" d="M 82.359375 59.285156 C 81.605469 58.53125 81.238281 57.367188 81.238281 55.730469 L 81.183594 55.730469 C 81.183594 57.367188 80.8125 58.53125 80.058594 59.285156 C 79.304688 60.042969 78.140625 60.410156 76.5 60.410156 L 76.5 60.464844 C 78.140625 60.464844 79.304688 60.832031 80.058594 61.589844 C 80.8125 62.34375 81.183594 63.507812 81.183594 65.144531 L 81.238281 65.144531 C 81.238281 61.910156 82.679688 60.464844 85.917969 60.464844 L 85.917969 60.410156 C 84.28125 60.410156 83.117188 60.042969 82.359375 59.285156 " fill-opacity="1" fill-rule="nonzero"/><path fill="#ffffff" d="M 95.335938 74.703125 C 94.140625 73.507812 93.5625 71.667969 93.5625 69.078125 L 93.472656 69.078125 C 93.472656 71.667969 92.890625 73.507812 91.695312 74.703125 C 90.503906 75.898438 88.664062 76.476562 86.074219 76.476562 L 86.074219 76.566406 C 88.664062 76.566406 90.503906 77.148438 91.695312 78.339844 C 92.890625 79.535156 93.472656 81.375 93.472656 83.964844 L 93.5625 83.964844 C 93.5625 78.847656 95.84375 76.566406 100.957031 76.566406 L 100.957031 76.476562 C 98.371094 76.476562 96.53125 75.898438 95.335938 74.703125 " fill-opacity="1" fill-rule="nonzero"/></svg>