<svg xmlns="http://www.w3.org/2000/svg" xmlns:xlink="http://www.w3.org/1999/xlink" width="500" zoomAndPan="magnify" viewBox="0 0 375 374.999991" height="500" preserveAspectRatio="xMidYMid meet" version="1.0"><defs><clipPath id="4b4481fe10"><path d="M 3 33 L 372 33 L 372 364.394531 L 3 364.394531 Z M 3 33 " clip-rule="nonzero"/></clipPath><clipPath id="4aa25d909a"><path d="M 62 10.566406 L 138 10.566406 L 138 86 L 62 86 Z M 62 10.566406 " clip-rule="nonzero"/></clipPath></defs><g clip-path="url(#4b4481fe10)"><path fill="#ffffff" d="M 192.28125 243.277344 L 192.28125 203.847656 C 203.152344 203.847656 213.011719 208.265625 220.15625 215.398438 C 227.289062 222.519531 231.707031 232.390625 231.707031 243.277344 Z M 231.707031 292.195312 L 192.28125 292.195312 L 192.28125 252.753906 L 231.707031 252.753906 Z M 182.792969 243.277344 L 143.363281 243.277344 C 143.363281 232.390625 147.777344 222.519531 154.914062 215.398438 C 162.035156 208.265625 171.894531 203.847656 182.792969 203.847656 Z M 182.792969 292.195312 L 143.363281 292.195312 L 143.363281 252.753906 L 182.792969 252.753906 Z M 368.890625 210.835938 L 194.398438 36.324219 C 190.597656 32.546875 184.433594 32.546875 180.671875 36.34375 L 124.152344 92.855469 C 125.019531 94.027344 125.964844 95.121094 126.976562 96.132812 C 134.425781 103.59375 145.910156 107.222656 162.089844 107.222656 L 162.089844 107.773438 C 130.132812 107.773438 115.890625 122.027344 115.890625 153.972656 L 115.324219 153.972656 C 115.324219 137.804688 111.707031 126.324219 104.25 118.863281 C 103.238281 117.847656 102.144531 116.902344 100.96875 116.035156 L 6.160156 210.835938 C 0.0625 216.957031 4.378906 227.414062 13.023438 227.414062 L 52.28125 227.414062 L 83.695312 364.582031 L 291.351562 364.582031 L 322.746094 227.414062 L 362.050781 227.414062 C 370.691406 227.414062 375.003906 216.957031 368.890625 210.835938 " fill-opacity="1" fill-rule="nonzero"/></g><path fill="#ffffff" d="M 353.921875 285.410156 C 349.46875 280.957031 347.304688 274.097656 347.304688 264.441406 L 346.96875 264.441406 C 346.96875 274.097656 344.804688 280.957031 340.351562 285.410156 C 335.898438 289.863281 329.039062 292.027344 319.378906 292.027344 L 319.378906 292.363281 C 329.039062 292.363281 335.898438 294.527344 340.351562 298.980469 C 344.804688 303.433594 346.96875 310.292969 346.96875 319.949219 L 347.304688 319.949219 C 347.304688 300.871094 355.8125 292.363281 374.894531 292.363281 L 374.894531 292.027344 C 365.234375 292.027344 358.375 289.863281 353.921875 285.410156 " fill-opacity="1" fill-rule="nonzero"/><path fill="#ffffff" d="M 40.316406 96.882812 C 35.542969 92.109375 33.226562 84.761719 33.226562 74.414062 L 32.863281 74.414062 C 32.863281 84.761719 30.546875 92.109375 25.773438 96.882812 C 21.003906 101.65625 13.652344 103.976562 3.304688 103.976562 L 3.304688 104.332031 C 13.652344 104.332031 21.003906 106.652344 25.773438 111.425781 C 30.546875 116.195312 32.863281 123.546875 32.863281 133.898438 L 33.226562 133.898438 C 33.226562 113.449219 42.339844 104.332031 62.785156 104.332031 L 62.785156 103.972656 C 52.4375 103.972656 45.085938 101.652344 40.316406 96.882812 " fill-opacity="1" fill-rule="nonzero"/><g clip-path="url(#4aa25d909a)"><path fill="#ffffff" d="M 109.554688 38.796875 C 103.527344 32.765625 100.59375 23.480469 100.59375 10.410156 L 100.144531 10.410156 C 100.144531 23.480469 97.214844 32.765625 91.183594 38.796875 C 85.15625 44.824219 75.875 47.75 62.800781 47.75 L 62.800781 48.207031 C 75.875 48.207031 85.15625 51.136719 91.1875 57.164062 C 97.214844 63.191406 100.144531 72.476562 100.144531 85.550781 L 100.59375 85.550781 C 100.59375 59.722656 112.113281 48.207031 137.941406 48.207031 L 137.941406 47.75 C 124.867188 47.75 115.582031 44.824219 109.554688 38.796875 " fill-opacity="1" fill-rule="nonzero"/></g><path fill="#ffffff" d="M 113.46875 278.554688 C 110.472656 275.554688 109.015625 270.941406 109.015625 264.441406 L 108.789062 264.441406 C 108.789062 270.941406 107.332031 275.554688 104.335938 278.554688 C 101.339844 281.550781 96.71875 283.007812 90.21875 283.007812 L 90.21875 283.234375 C 96.71875 283.234375 101.339844 284.691406 104.335938 287.6875 C 107.332031 290.6875 108.789062 295.304688 108.789062 301.804688 L 109.015625 301.804688 C 109.015625 288.960938 114.742188 283.234375 127.585938 283.234375 L 127.585938 283.007812 C 121.085938 283.007812 116.464844 281.550781 113.46875 278.554688 " fill-opacity="1" fill-rule="nonzero"/><path fill="#ffffff" d="M 216.5625 144.191406 C 213.566406 141.195312 212.105469 136.578125 212.105469 130.078125 L 211.882812 130.078125 C 211.882812 136.578125 210.421875 141.195312 207.425781 144.191406 C 204.429688 147.191406 199.808594 148.648438 193.308594 148.648438 L 193.308594 148.871094 C 199.808594 148.871094 204.429688 150.328125 207.425781 153.328125 C 210.421875 156.324219 211.882812 160.941406 211.882812 167.441406 L 212.105469 167.441406 C 212.105469 154.597656 217.832031 148.871094 230.675781 148.871094 L 230.675781 148.648438 C 224.175781 148.648438 219.558594 147.191406 216.5625 144.191406 " fill-opacity="1" fill-rule="nonzero"/><path fill="#ffffff" d="M 268.050781 205.367188 C 263.3125 200.628906 261.007812 193.332031 261.007812 183.054688 L 260.652344 183.054688 C 260.652344 193.332031 258.347656 200.628906 253.609375 205.367188 C 248.871094 210.105469 241.574219 212.40625 231.300781 212.40625 L 231.300781 212.765625 C 241.574219 212.765625 248.871094 215.066406 253.609375 219.804688 C 258.347656 224.542969 260.652344 231.839844 260.652344 242.117188 L 261.007812 242.117188 C 261.007812 221.816406 270.0625 212.765625 290.359375 212.765625 L 290.359375 212.40625 C 280.085938 212.40625 272.785156 210.105469 268.050781 205.367188 " fill-opacity="1" fill-rule="nonzero"/></svg>