<svg xmlns="http://www.w3.org/2000/svg" xmlns:xlink="http://www.w3.org/1999/xlink" width="500" zoomAndPan="magnify" viewBox="0 0 375 374.999991" height="500" preserveAspectRatio="xMidYMid meet" version="1.0"><defs><clipPath id="9f36808510"><path d="M 3 33 L 372 33 L 372 364.546875 L 3 364.546875 Z M 3 33 " clip-rule="nonzero"/></clipPath><clipPath id="a329bd7a55"><path d="M 62 10.566406 L 138 10.566406 L 138 86 L 62 86 Z M 62 10.566406 " clip-rule="nonzero"/></clipPath></defs><g clip-path="url(#9f36808510)"><path fill="#4f39f6" d="M 192.277344 243.234375 L 192.277344 203.839844 C 203.136719 203.839844 212.992188 208.253906 220.128906 215.382812 C 227.257812 222.496094 231.671875 232.359375 231.671875 243.234375 Z M 231.671875 292.113281 L 192.277344 292.113281 L 192.277344 252.703125 L 231.671875 252.703125 Z M 182.796875 243.234375 L 143.398438 243.234375 C 143.398438 232.359375 147.8125 222.496094 154.941406 215.382812 C 162.058594 208.253906 171.90625 203.839844 182.796875 203.839844 Z M 182.796875 292.113281 L 143.398438 292.113281 L 143.398438 252.703125 L 182.796875 252.703125 Z M 368.738281 210.820312 L 194.394531 36.453125 C 190.597656 32.679688 184.4375 32.679688 180.679688 36.472656 L 124.203125 92.9375 C 125.070312 94.109375 126.015625 95.203125 127.027344 96.214844 C 134.472656 103.667969 145.945312 107.292969 162.113281 107.292969 L 162.113281 107.84375 C 130.179688 107.84375 115.949219 122.085938 115.949219 154.007812 L 115.386719 154.007812 C 115.386719 137.851562 111.769531 126.378906 104.320312 118.921875 C 103.308594 117.910156 102.214844 116.964844 101.042969 116.097656 L 6.308594 210.820312 C 0.21875 216.9375 4.527344 227.382812 13.167969 227.382812 L 52.390625 227.382812 L 83.78125 364.4375 L 291.265625 364.4375 L 322.632812 227.382812 L 361.90625 227.382812 C 370.539062 227.382812 374.851562 216.9375 368.738281 210.820312 " fill-opacity="1" fill-rule="nonzero"/></g><path fill="#4f39f6" d="M 353.785156 285.332031 C 349.332031 280.882812 347.171875 274.027344 347.171875 264.382812 L 346.835938 264.382812 C 346.835938 274.027344 344.675781 280.882812 340.226562 285.332031 C 335.777344 289.78125 328.921875 291.945312 319.273438 291.945312 L 319.273438 292.28125 C 328.921875 292.28125 335.777344 294.445312 340.226562 298.894531 C 344.675781 303.34375 346.835938 310.195312 346.835938 319.84375 L 347.171875 319.84375 C 347.171875 300.78125 355.675781 292.28125 374.738281 292.28125 L 374.738281 291.945312 C 365.085938 291.945312 358.234375 289.78125 353.785156 285.332031 " fill-opacity="1" fill-rule="nonzero"/><path fill="#4f39f6" d="M 40.4375 96.960938 C 35.667969 92.195312 33.351562 84.847656 33.351562 74.511719 L 32.992188 74.511719 C 32.992188 84.847656 30.675781 92.195312 25.90625 96.960938 C 21.140625 101.730469 13.796875 104.046875 3.457031 104.046875 L 3.457031 104.40625 C 13.796875 104.40625 21.140625 106.722656 25.90625 111.492188 C 30.675781 116.261719 32.992188 123.605469 32.992188 133.945312 L 33.351562 133.945312 C 33.351562 113.515625 42.460938 104.40625 62.890625 104.40625 L 62.890625 104.046875 C 52.546875 104.046875 45.203125 101.726562 40.4375 96.960938 " fill-opacity="1" fill-rule="nonzero"/><g clip-path="url(#a329bd7a55)"><path fill="#4f39f6" d="M 109.617188 38.921875 C 103.597656 32.898438 100.667969 23.621094 100.667969 10.5625 L 100.214844 10.5625 C 100.214844 23.621094 97.289062 32.898438 91.261719 38.921875 C 85.242188 44.945312 75.964844 47.871094 62.902344 47.871094 L 62.902344 48.328125 C 75.964844 48.328125 85.242188 51.253906 91.265625 57.277344 C 97.289062 63.300781 100.214844 72.578125 100.214844 85.636719 L 100.667969 85.636719 C 100.667969 59.835938 112.175781 48.328125 137.980469 48.328125 L 137.980469 47.871094 C 124.917969 47.871094 115.640625 44.945312 109.617188 38.921875 " fill-opacity="1" fill-rule="nonzero"/></g><path fill="#ffffff" d="M 113.53125 278.484375 C 110.535156 275.488281 109.078125 270.875 109.078125 264.382812 L 108.855469 264.382812 C 108.855469 270.875 107.398438 275.488281 104.402344 278.484375 C 101.410156 281.476562 96.796875 282.933594 90.300781 282.933594 L 90.300781 283.160156 C 96.796875 283.160156 101.410156 284.617188 104.402344 287.609375 C 107.398438 290.605469 108.855469 295.222656 108.855469 301.714844 L 109.078125 301.714844 C 109.078125 288.882812 114.800781 283.160156 127.636719 283.160156 L 127.636719 282.933594 C 121.140625 282.933594 116.523438 281.476562 113.53125 278.484375 " fill-opacity="1" fill-rule="nonzero"/><path fill="#ffffff" d="M 216.535156 144.230469 C 213.542969 141.238281 212.085938 136.621094 212.085938 130.128906 L 211.859375 130.128906 C 211.859375 136.621094 210.40625 141.238281 207.410156 144.230469 C 204.414062 147.226562 199.800781 148.683594 193.304688 148.683594 L 193.304688 148.90625 C 199.800781 148.90625 204.414062 150.363281 207.410156 153.359375 C 210.40625 156.351562 211.859375 160.96875 211.859375 167.460938 L 212.085938 167.460938 C 212.085938 154.628906 217.808594 148.90625 230.640625 148.90625 L 230.640625 148.683594 C 224.144531 148.683594 219.53125 147.226562 216.535156 144.230469 " fill-opacity="1" fill-rule="nonzero"/><path fill="#ffffff" d="M 267.980469 205.355469 C 263.25 200.621094 260.949219 193.332031 260.949219 183.0625 L 260.589844 183.0625 C 260.589844 193.332031 258.289062 200.621094 253.554688 205.355469 C 248.820312 210.089844 241.527344 212.390625 231.261719 212.390625 L 231.261719 212.746094 C 241.527344 212.746094 248.820312 215.046875 253.554688 219.78125 C 258.289062 224.515625 260.589844 231.808594 260.589844 242.074219 L 260.949219 242.074219 C 260.949219 221.792969 269.992188 212.746094 290.273438 212.746094 L 290.273438 212.390625 C 280.007812 212.390625 272.714844 210.089844 267.980469 205.355469 " fill-opacity="1" fill-rule="nonzero"/></svg>